<?xml version="1.0" encoding="UTF-8"?>
<svg id="Layer_1" data-name="Layer 1" xmlns="http://www.w3.org/2000/svg" xmlns:xlink="http://www.w3.org/1999/xlink" viewBox="0 0 63 63">
  <defs>
    <style>
      .cls-1 {
        fill: #231f20;
      }

      .cls-2 {
        fill: url(#linear-gradient);
      }
    </style>
    <linearGradient id="linear-gradient" x1="0" y1="31.5" x2="63" y2="31.5" gradientUnits="userSpaceOnUse">
      <stop offset="0" stop-color="#59359b"/>
      <stop offset="1" stop-color="#8160d9"/>
    </linearGradient>
  </defs>
  <g>
    <path class="cls-1" d="M28.69,29.21c-.55.56-3.18.08-6.02-2.76-1.26-1.26-2.25-2.73-2.7-4.01-.4-1.13-.28-1.79-.06-2.01.11-.11.35-.2.71-.2.33,0,.76.07,1.3.26,1.29.45,2.75,1.44,4.01,2.7,2.84,2.84,3.31,5.47,2.76,6.02Z"/>
    <path class="cls-1" d="M29.7,0v23.67c-.53-.78-1.18-1.56-1.93-2.31-1.55-1.55-3.32-2.73-4.99-3.31-1.98-.69-3.65-.5-4.7.55-1.05,1.05-1.25,2.73-.55,4.7.58,1.66,1.76,3.44,3.31,4.99.52.52,1.05.99,1.59,1.4H0C.9,13.71,13.71.9,29.7,0Z"/>
    <path class="cls-1" d="M29.7,34.74v28.26C13.71,62.1.9,49.3,0,33.31h27.04l-7.82,7.92,2.06,2.04,8.42-8.52Z"/>
    <path class="cls-1" d="M43.03,22.44c-.45,1.29-1.44,2.75-2.7,4.01-2.84,2.84-5.47,3.31-6.02,2.76-.55-.55-.08-3.18,2.76-6.02,2.84-2.84,5.47-3.31,6.02-2.76.22.22.34.88-.06,2.01Z"/>
    <path class="cls-1" d="M63,33.31c-.9,15.99-13.7,28.79-29.69,29.69v-28.26l8.42,8.52,2.06-2.04-7.82-7.92h27.04Z"/>
    <path class="cls-1" d="M45.48,23.3c.69-1.98.5-3.65-.55-4.7-1.98-1.97-6.14-.79-9.69,2.76-.75.75-1.4,1.53-1.93,2.31V0c15.99.9,28.79,13.71,29.69,29.7h-22.42c.54-.41,1.07-.88,1.59-1.4,1.55-1.55,2.73-3.33,3.31-4.99Z"/>
  </g>
  <g>
    <path class="cls-2" d="M28.69,29.21c-.55.56-3.18.08-6.02-2.76-1.26-1.26-2.25-2.73-2.7-4.01-.4-1.13-.28-1.79-.06-2.01.11-.11.35-.2.71-.2.33,0,.76.07,1.3.26,1.29.45,2.75,1.44,4.01,2.7,2.84,2.84,3.31,5.47,2.76,6.02Z"/>
    <path class="cls-2" d="M29.7,0v23.67c-.53-.78-1.18-1.56-1.93-2.31-1.55-1.55-3.32-2.73-4.99-3.31-1.98-.69-3.65-.5-4.7.55-1.05,1.05-1.25,2.73-.55,4.7.58,1.66,1.76,3.44,3.31,4.99.52.52,1.05.99,1.59,1.4H0C.9,13.71,13.71.9,29.7,0Z"/>
    <path class="cls-2" d="M29.7,34.74v28.26C13.71,62.1.9,49.3,0,33.31h27.04l-7.82,7.92,2.06,2.04,8.42-8.52Z"/>
    <path class="cls-2" d="M43.03,22.44c-.45,1.29-1.44,2.75-2.7,4.01-2.84,2.84-5.47,3.31-6.02,2.76-.55-.55-.08-3.18,2.76-6.02,2.84-2.84,5.47-3.31,6.02-2.76.22.22.34.88-.06,2.01Z"/>
    <path class="cls-2" d="M63,33.31c-.9,15.99-13.7,28.79-29.69,29.69v-28.26l8.42,8.52,2.06-2.04-7.82-7.92h27.04Z"/>
    <path class="cls-2" d="M45.48,23.3c.69-1.98.5-3.65-.55-4.7-1.98-1.97-6.14-.79-9.69,2.76-.75.75-1.4,1.53-1.93,2.31V0c15.99.9,28.79,13.71,29.69,29.7h-22.42c.54-.41,1.07-.88,1.59-1.4,1.55-1.55,2.73-3.33,3.31-4.99Z"/>
  </g>
</svg>